# Blender v3.0.0 OBJ File: 'PM_Baked_Pin_1-16-20_01.blend'
# www.blender.org
o Pin_Baked_Circle.007
v 0.232161 0.000000 0.194790
v 0.328728 0.000000 0.286665
v 0.554825 1.314422 0.537206
v 0.182977 2.694627 0.179398
v 0.182977 3.257402 0.183453
v 0.392286 2.166757 0.347577
v 0.474915 0.652800 0.457403
v 0.258555 3.644310 0.273109
v 0.150851 4.026752 0.148657
v 0.168953 2.894211 0.166391
v 0.168953 3.063030 0.168078
v -0.232161 0.000000 0.194790
v 0.000000 0.000000 0.383225
v -0.328728 0.000000 0.286665
v 0.000000 0.000000 0.242943
v -0.554825 1.314422 0.537206
v 0.000000 1.314422 0.735130
v -0.182977 2.694627 0.179398
v 0.000000 2.694627 0.247169
v -0.182977 3.257402 0.183453
v 0.000000 3.257402 0.251224
v -0.392286 2.166757 0.347577
v 0.000000 2.166757 0.463133
v 0.000000 0.652800 0.612199
v -0.474915 0.652800 0.457403
v -0.258555 3.644310 0.273109
v 0.000000 3.644310 0.373216
v -0.150851 4.026752 0.148657
v 0.000000 4.026752 0.191800
v -0.168953 2.894211 0.166391
v 0.000000 2.892209 0.236991
v -0.168953 3.063030 0.168078
v 0.000000 3.064783 0.238847
v 0.269323 0.000000 0.000000
v 0.232161 0.000000 -0.194790
v 0.328728 0.000000 -0.286665
v 0.409605 0.000000 0.000000
v 0.667069 1.314422 0.000000
v 0.554825 1.314422 -0.537206
v 0.253763 2.694627 0.000000
v 0.182977 2.694627 -0.179398
v 0.253763 3.257402 0.000000
v 0.182977 3.257402 -0.183453
v 0.392286 2.166757 -0.347577
v 0.482005 2.166757 0.000000
v 0.587159 0.652800 0.000000
v 0.474915 0.652800 -0.457403
v 0.384127 3.644310 0.000000
v 0.258555 3.644310 -0.273109
v 0.210465 4.026752 0.000000
v 0.150851 4.026752 -0.148657
v 0.168953 2.894211 -0.166391
v 0.241965 2.892209 0.000000
v 0.168953 3.063030 -0.168078
v 0.241965 3.064783 0.000000
v -0.269323 0.000000 0.000000
v -0.232161 0.000000 -0.194790
v 0.000000 0.000000 -0.383225
v -0.328728 0.000000 -0.286665
v -0.409605 0.000000 0.000000
v 0.000000 0.000000 -0.242943
v 0.000000 0.000000 0.000000
v -0.667069 1.314422 0.000000
v -0.554825 1.314422 -0.537206
v 0.000000 1.314422 -0.735130
v -0.253763 2.694627 0.000000
v -0.182977 2.694627 -0.179398
v 0.000000 2.694627 -0.247169
v -0.253763 3.257402 0.000000
v -0.182977 3.257402 -0.183453
v 0.000000 3.257402 -0.251224
v -0.392286 2.166757 -0.347577
v 0.000000 2.166757 -0.463133
v -0.482005 2.166757 0.000000
v 0.000000 0.652800 -0.612199
v -0.587159 0.652800 0.000000
v -0.474915 0.652800 -0.457403
v -0.384127 3.644310 0.000000
v -0.258555 3.644310 -0.273109
v 0.000000 3.644310 -0.373216
v -0.210465 4.026752 0.000000
v -0.150851 4.026752 -0.148657
v 0.000000 4.026752 -0.191800
v 0.000000 4.058155 0.000000
v -0.168953 2.894211 -0.166391
v 0.000000 2.892209 -0.236991
v -0.241965 2.892209 0.000000
v -0.168953 3.063030 -0.168078
v -0.241965 3.064783 0.000000
v 0.000000 3.064783 -0.238847
vt 0.193745 0.079007
vt 0.179343 0.000160
vt 0.211670 0.047897
vt 0.485549 0.086499
vt 0.509659 0.000160
vt 0.540019 0.013927
vt 0.717942 0.300080
vt 0.750160 0.359305
vt 0.710284 0.360261
vt 0.039759 0.185206
vt 0.108323 0.410888
vt 0.000160 0.411589
vt 0.640387 0.200164
vt 0.561172 0.420174
vt 0.543552 0.251232
vt 0.519216 0.648597
vt 0.494271 0.849095
vt 0.458317 0.809241
vt 0.147531 0.642940
vt 0.171629 0.844640
vt 0.077088 0.691284
vt 0.008511 0.922650
vt 0.032212 0.864382
vt 0.038515 0.912132
vt 0.252314 0.922650
vt 0.228596 0.864406
vt 0.260899 0.875062
vt 0.598933 0.707599
vt 0.148873 0.013231
vt 0.131168 0.236756
vt 0.952692 0.007069
vt 0.999840 0.127550
vt 0.950781 0.116353
vt 0.681378 0.012744
vt 0.724019 0.116950
vt 0.673443 0.132041
vt 0.959992 0.239579
vt 0.930357 0.222397
vt 0.715137 0.239579
vt 0.706506 0.409860
vt 0.720815 0.360581
vt 0.739569 0.389962
vt 0.520016 0.898642
vt 0.482421 0.858970
vt 0.512315 0.849415
vt 0.293442 0.907943
vt 0.269044 0.849415
vt 0.299202 0.858803
vt 0.766192 0.894146
vt 0.736039 0.850484
vt 0.766856 0.851582
vt 0.551547 0.893801
vt 0.520336 0.851569
vt 0.551136 0.850282
vt 0.388169 0.142512
vt 0.426490 0.097491
vt 0.434746 0.133332
vt 0.673443 0.337361
vt 0.673443 0.287352
vt 0.464757 0.281815
vt 0.402563 0.416032
vt 0.399765 0.288743
vt 0.417161 0.783249
vt 0.450238 0.610835
vt 0.392972 0.599766
vt 0.068929 0.904725
vt 0.097490 0.851592
vt 0.099603 0.900155
vt 0.470901 0.417379
vt 0.911622 0.107303
vt 0.913550 0.006886
vt 0.873472 0.102810
vt 0.875693 0.007259
vt 0.899562 0.212704
vt 0.673443 0.389091
vt 0.694390 0.364606
vt 0.325860 0.915630
vt 0.360121 0.869671
vt 0.358197 0.919503
vt 0.329689 0.865395
vt 0.582342 0.892834
vt 0.612771 0.849604
vt 0.612907 0.893124
vt 0.581949 0.850263
vt 0.245898 0.088086
vt 0.235685 0.122764
vt 0.290515 0.137357
vt 0.762441 0.262799
vt 0.762441 0.312808
vt 0.205412 0.273487
vt 0.268996 0.412199
vt 0.274569 0.287032
vt 0.275502 0.597917
vt 0.248252 0.781331
vt 0.209198 0.609604
vt 0.163323 0.851561
vt 0.191871 0.904720
vt 0.161211 0.900134
vt 0.222296 0.912148
vt 0.196696 0.411107
vt 0.798519 0.000160
vt 0.765603 0.107803
vt 0.759254 0.007225
vt 0.720533 0.013567
vt 0.801488 0.104649
vt 0.776323 0.212583
vt 0.739569 0.430629
vt 0.718622 0.455113
vt 0.456136 0.915519
vt 0.488199 0.908128
vt 0.423409 0.919226
vt 0.452150 0.865311
vt 0.705071 0.892844
vt 0.735627 0.894000
vt 0.674269 0.892938
vt 0.705214 0.850269
vt 0.343375 0.116262
vt 0.384591 0.106186
vt 0.343242 0.152664
vt 0.685723 0.240855
vt 0.725600 0.239899
vt 0.338995 0.295228
vt 0.337340 0.414013
vt 0.333652 0.764423
vt 0.290343 0.766055
vt 0.338201 0.590888
vt 0.130413 0.898712
vt 0.130533 0.849415
vt 0.836378 0.101451
vt 0.837859 0.002755
vt 0.837150 0.205796
vt 0.806569 0.206095
vt 0.692197 0.459138
vt 0.673443 0.429758
vt 0.390615 0.921252
vt 0.390679 0.870689
vt 0.421470 0.869418
vt 0.643469 0.892404
vt 0.643596 0.849829
vt 0.674407 0.849415
vt 0.468880 0.053794
vt 0.673123 0.427414
vt 0.207141 0.805319
vt 0.000160 0.874968
vt 0.991716 0.006940
vt 0.744630 0.220836
vt 0.261219 0.898597
vt 0.520746 0.894141
vt 0.376177 0.766360
vt 0.064538 0.855868
vt 0.868562 0.204437
vt 0.295095 0.101247
vt 0.196021 0.855816
vn 0.6662 -0.7458 0.0000
vn 0.0000 -1.0000 0.0000
vn 0.0000 -0.7682 0.6402
vn 0.4953 -0.7327 0.4667
vn 0.7147 -0.2402 0.6569
vn 0.9990 0.0454 0.0000
vn 0.7479 0.0533 0.6616
vn 0.0000 0.0568 0.9984
vn 0.0000 -0.2493 0.9684
vn 0.0000 0.3470 0.9378
vn 0.6693 0.2650 0.6941
vn 0.0000 0.2367 0.9716
vn 0.9490 0.3152 0.0000
vn 0.6855 0.3587 0.6336
vn 0.7014 -0.0459 0.7113
vn 0.0000 -0.1959 0.9806
vn 0.0000 -0.0378 0.9993
vn 0.9780 -0.2083 0.0000
vn 0.6832 -0.2115 0.6989
vn 0.9808 -0.1948 0.0000
vn 0.6809 0.0508 0.7306
vn 0.0000 0.0523 0.9986
vn 0.9987 0.0499 0.0000
vn 0.4563 0.7397 0.4946
vn 0.0000 0.7610 0.6487
vn 0.0000 1.0000 0.0000
vn 0.6662 0.7458 0.0000
vn 0.9992 0.0404 0.0000
vn 0.6972 0.0393 0.7158
vn 0.0000 0.0209 0.9998
vn 0.9995 -0.0320 0.0000
vn -0.6662 -0.7458 0.0000
vn -0.4953 -0.7327 0.4667
vn -0.7147 -0.2402 0.6569
vn -0.9990 0.0454 0.0000
vn -0.9808 -0.1948 0.0000
vn -0.6693 0.2650 0.6941
vn -0.6855 0.3587 0.6336
vn -0.9490 0.3152 0.0000
vn -0.7014 -0.0459 0.7113
vn -0.9780 -0.2083 0.0000
vn -0.9995 -0.0320 0.0000
vn -0.7479 0.0533 0.6616
vn -0.6809 0.0508 0.7306
vn -0.6832 -0.2115 0.6989
vn -0.9987 0.0499 0.0000
vn -0.4563 0.7397 0.4946
vn -0.9992 0.0404 0.0000
vn -0.9704 0.2414 0.0000
vn -0.6972 0.0393 0.7158
vn 0.4953 -0.7327 -0.4667
vn 0.0000 -0.7682 -0.6402
vn 0.7147 -0.2402 -0.6569
vn 0.0000 0.0568 -0.9984
vn 0.0000 -0.2493 -0.9684
vn 0.0000 0.3470 -0.9378
vn 0.6693 0.2650 -0.6941
vn 0.6855 0.3587 -0.6336
vn 0.0000 -0.1959 -0.9806
vn 0.7014 -0.0459 -0.7113
vn 0.0000 -0.0378 -0.9993
vn 0.7479 0.0533 -0.6616
vn 0.6809 0.0508 -0.7306
vn 0.6832 -0.2115 -0.6989
vn 0.0000 0.0523 -0.9986
vn 0.4563 0.7397 -0.4946
vn 0.0000 0.7610 -0.6487
vn 0.9704 0.2414 0.0000
vn 0.0000 0.2367 -0.9716
vn 0.6972 0.0393 -0.7158
vn 0.0000 0.0209 -0.9998
vn -0.4953 -0.7327 -0.4667
vn -0.7147 -0.2402 -0.6569
vn -0.7479 0.0533 -0.6616
vn -0.6693 0.2650 -0.6941
vn -0.6855 0.3587 -0.6336
vn -0.7014 -0.0459 -0.7113
vn -0.6832 -0.2115 -0.6989
vn -0.6809 0.0508 -0.7306
vn -0.4563 0.7397 -0.4946
vn -0.6662 0.7458 0.0000
vn -0.6972 0.0393 -0.7158
s off
f 37/1/1 1/2/2 34/3/2
f 13/4/3 1/5/2 2/6/4
f 62/7/2 1/8/2 15/9/2
f 7/10/5 38/11/6 3/12/7
f 7/13/5 17/14/8 24/15/9
f 23/16/10 4/17/11 19/18/12
f 45/19/13 4/20/11 6/21/14
f 11/22/15 21/23/16 33/24/17
f 11/25/15 42/26/18 5/27/19
f 38/11/6 6/21/14 3/12/7
f 17/14/8 6/28/14 23/16/10
f 2/6/4 24/15/9 13/4/3
f 2/29/4 46/30/20 7/10/5
f 21/31/16 8/32/21 27/33/22
f 5/34/19 48/35/23 8/36/21
f 27/33/22 9/37/24 29/38/25
f 48/35/23 9/39/24 8/36/21
f 84/40/26 9/41/24 50/42/27
f 4/43/11 53/44/28 10/45/29
f 19/46/12 10/47/29 31/48/30
f 10/49/29 55/50/31 11/51/15
f 31/52/30 11/53/15 33/54/17
f 60/55/32 12/56/2 14/57/33
f 12/56/2 13/4/3 14/57/33
f 62/7/2 12/58/2 56/59/2
f 25/60/34 63/61/35 76/62/36
f 17/14/8 25/60/34 24/15/9
f 23/16/10 18/63/37 22/64/38
f 18/63/37 74/65/39 22/64/38
f 21/23/16 32/66/40 33/24/17
f 32/66/40 69/67/41 89/68/42
f 22/64/38 63/61/35 16/69/43
f 17/14/8 22/64/38 16/69/43
f 24/15/9 14/57/33 13/4/3
f 14/57/33 76/62/36 60/55/32
f 21/31/16 26/70/44 20/71/45
f 20/71/45 78/72/46 69/73/41
f 27/33/22 28/74/47 26/70/44
f 28/74/47 78/72/46 26/70/44
f 84/40/26 28/75/47 29/76/25
f 18/77/37 87/78/48 66/79/49
f 19/46/12 30/80/50 18/77/37
f 30/81/50 89/82/42 87/83/48
f 31/52/30 32/84/40 30/81/50
f 37/1/1 35/85/2 36/86/51
f 35/85/2 58/87/52 36/86/51
f 62/7/2 35/88/2 34/89/2
f 47/90/53 38/11/6 46/30/20
f 65/91/54 47/90/53 75/92/55
f 73/93/56 41/94/57 44/95/58
f 41/94/57 45/19/13 44/95/58
f 71/96/59 54/97/60 90/98/61
f 54/97/60 42/26/18 55/99/31
f 44/95/58 38/11/6 39/100/62
f 65/91/54 44/95/58 39/100/62
f 75/92/55 36/86/51 58/87/52
f 36/86/51 46/30/20 37/1/1
f 71/101/59 49/102/63 43/103/64
f 43/103/64 48/35/23 42/104/18
f 80/105/65 51/106/66 49/102/63
f 51/106/66 48/35/23 49/102/63
f 84/40/26 51/107/66 83/108/67
f 41/109/57 53/44/28 40/110/68
f 68/111/69 52/112/70 41/109/57
f 52/113/70 55/50/31 53/114/28
f 86/115/71 54/116/60 52/113/70
f 60/55/32 57/117/2 56/118/2
f 58/87/52 57/117/2 59/119/72
f 62/7/2 57/120/2 61/121/2
f 77/122/73 63/61/35 64/123/74
f 77/122/73 65/91/54 75/92/55
f 73/93/56 67/124/75 68/125/69
f 74/65/39 67/124/75 72/126/76
f 88/127/77 71/96/59 90/98/61
f 88/127/77 69/67/41 70/128/78
f 63/61/35 72/126/76 64/123/74
f 65/91/54 72/126/76 73/93/56
f 59/119/72 75/92/55 58/87/52
f 59/119/72 76/62/36 77/122/73
f 71/101/59 79/129/79 80/105/65
f 70/130/78 78/72/46 79/129/79
f 80/105/65 82/131/80 83/132/67
f 78/72/46 82/131/80 79/129/79
f 84/40/26 82/133/80 81/134/81
f 67/135/75 87/78/48 85/136/82
f 68/111/69 85/136/82 86/137/71
f 85/138/82 89/82/42 88/139/77
f 86/115/71 88/139/77 90/140/61
f 37/1/1 2/29/4 1/2/2
f 13/4/3 15/141/2 1/5/2
f 62/7/2 34/89/2 1/8/2
f 7/10/5 46/30/20 38/11/6
f 7/13/5 3/142/7 17/14/8
f 23/16/10 6/28/14 4/17/11
f 45/19/13 40/143/68 4/20/11
f 11/22/15 5/144/19 21/23/16
f 11/25/15 55/99/31 42/26/18
f 38/11/6 45/19/13 6/21/14
f 17/14/8 3/142/7 6/28/14
f 2/6/4 7/13/5 24/15/9
f 2/29/4 37/1/1 46/30/20
f 21/31/16 5/145/19 8/32/21
f 5/34/19 42/104/18 48/35/23
f 27/33/22 8/32/21 9/37/24
f 48/35/23 50/146/27 9/39/24
f 84/40/26 29/76/25 9/41/24
f 4/43/11 40/110/68 53/44/28
f 19/46/12 4/147/11 10/47/29
f 10/49/29 53/114/28 55/50/31
f 31/52/30 10/148/29 11/53/15
f 60/55/32 56/118/2 12/56/2
f 12/56/2 15/141/2 13/4/3
f 62/7/2 15/9/2 12/58/2
f 25/60/34 16/69/43 63/61/35
f 17/14/8 16/69/43 25/60/34
f 23/16/10 19/18/12 18/63/37
f 18/63/37 66/149/49 74/65/39
f 21/23/16 20/150/45 32/66/40
f 32/66/40 20/150/45 69/67/41
f 22/64/38 74/65/39 63/61/35
f 17/14/8 23/16/10 22/64/38
f 24/15/9 25/60/34 14/57/33
f 14/57/33 25/60/34 76/62/36
f 21/31/16 27/33/22 26/70/44
f 20/71/45 26/70/44 78/72/46
f 27/33/22 29/38/25 28/74/47
f 28/74/47 81/151/81 78/72/46
f 84/40/26 81/134/81 28/75/47
f 18/77/37 30/80/50 87/78/48
f 19/46/12 31/48/30 30/80/50
f 30/81/50 32/84/40 89/82/42
f 31/52/30 33/54/17 32/84/40
f 37/1/1 34/3/2 35/85/2
f 35/85/2 61/152/2 58/87/52
f 62/7/2 61/121/2 35/88/2
f 47/90/53 39/100/62 38/11/6
f 65/91/54 39/100/62 47/90/53
f 73/93/56 68/125/69 41/94/57
f 41/94/57 40/143/68 45/19/13
f 71/96/59 43/153/64 54/97/60
f 54/97/60 43/153/64 42/26/18
f 44/95/58 45/19/13 38/11/6
f 65/91/54 73/93/56 44/95/58
f 75/92/55 47/90/53 36/86/51
f 36/86/51 47/90/53 46/30/20
f 71/101/59 80/105/65 49/102/63
f 43/103/64 49/102/63 48/35/23
f 80/105/65 83/132/67 51/106/66
f 51/106/66 50/146/27 48/35/23
f 84/40/26 50/42/27 51/107/66
f 41/109/57 52/112/70 53/44/28
f 68/111/69 86/137/71 52/112/70
f 52/113/70 54/116/60 55/50/31
f 86/115/71 90/140/61 54/116/60
f 60/55/32 59/119/72 57/117/2
f 58/87/52 61/152/2 57/117/2
f 62/7/2 56/59/2 57/120/2
f 77/122/73 76/62/36 63/61/35
f 77/122/73 64/123/74 65/91/54
f 73/93/56 72/126/76 67/124/75
f 74/65/39 66/149/49 67/124/75
f 88/127/77 70/128/78 71/96/59
f 88/127/77 89/68/42 69/67/41
f 63/61/35 74/65/39 72/126/76
f 65/91/54 64/123/74 72/126/76
f 59/119/72 77/122/73 75/92/55
f 59/119/72 60/55/32 76/62/36
f 71/101/59 70/130/78 79/129/79
f 70/130/78 69/73/41 78/72/46
f 80/105/65 79/129/79 82/131/80
f 78/72/46 81/151/81 82/131/80
f 84/40/26 83/108/67 82/133/80
f 67/135/75 66/79/49 87/78/48
f 68/111/69 67/135/75 85/136/82
f 85/138/82 87/83/48 89/82/42
f 86/115/71 85/138/82 88/139/77
